<svg width="731" height="316" viewBox="0 0 731 316" fill="none" xmlns="http://www.w3.org/2000/svg">
<path d="M115.327 293.6C94.2599 293.6 74.6599 291.2 56.5266 286.4C38.3932 281.333 23.5932 274.267 12.1266 265.2C8.12656 262.267 5.19323 259.2 3.32656 256C1.72656 252.533 0.926564 248.267 0.926564 243.2C0.926564 236.533 2.92656 230.667 6.92656 225.6C11.1932 220.533 15.9932 218 21.3266 218C24.2599 218 27.0599 218.533 29.7266 219.6C32.6599 220.4 36.1266 222 40.1266 224.4C51.5932 231.6 63.1932 236.933 74.9266 240.4C86.6599 243.6 99.5932 245.2 113.727 245.2C131.327 245.2 144.793 242.267 154.127 236.4C163.46 230.533 168.127 222.133 168.127 211.2C168.127 202.933 163.727 196.267 154.927 191.2C146.393 186.133 131.06 181.333 108.927 176.8C84.1266 171.733 64.2599 165.6 49.3266 158.4C34.6599 151.2 23.8599 142.267 16.9266 131.6C10.2599 120.933 6.92656 108 6.92656 92.8C6.92656 76 11.7266 60.9333 21.3266 47.6C31.1932 34 44.6599 23.4667 61.7266 16C79.0599 8.26665 98.5266 4.39998 120.127 4.39998C157.993 4.39998 189.193 13.8667 213.727 32.8C217.727 36 220.527 39.3333 222.127 42.8C223.993 46 224.927 50 224.927 54.8C224.927 61.4667 222.793 67.3333 218.527 72.4C214.527 77.4667 209.86 80 204.527 80C201.593 80 198.793 79.6 196.127 78.8C193.727 78 190.26 76.2667 185.727 73.6C174.793 66.6667 164.66 61.4667 155.327 58C146.26 54.5333 134.66 52.8 120.527 52.8C104.26 52.8 91.4599 56 82.1266 62.4C72.7932 68.5333 68.1266 77.0667 68.1266 88C68.1266 94.4 69.8599 99.7333 73.3266 104C77.0599 108 83.0599 111.6 91.3266 114.8C99.8599 118 111.86 121.333 127.327 124.8C163.593 132.8 189.593 143.067 205.327 155.6C221.327 168.133 229.327 185.333 229.327 207.2C229.327 224.267 224.527 239.333 214.927 252.4C205.593 265.467 192.26 275.6 174.927 282.8C157.86 290 137.993 293.6 115.327 293.6Z" fill="#FF387C"/>
<path d="M295.145 290C285.812 290 278.612 287.467 273.545 282.4C268.479 277.333 265.945 270.133 265.945 260.8V37.2C265.945 27.8666 268.479 20.6666 273.545 15.6C278.612 10.5333 285.812 7.99998 295.145 7.99998H436.745C456.479 7.99998 466.345 16 466.345 32C466.345 48.2666 456.479 56.4 436.745 56.4H326.745V122.4H428.745C448.479 122.4 458.345 130.533 458.345 146.8C458.345 162.8 448.479 170.8 428.745 170.8H326.745V241.6H436.745C456.479 241.6 466.345 249.733 466.345 266C466.345 282 456.479 290 436.745 290H295.145Z" fill="#387CFF"/>
<path d="M604.486 291C595.153 291 587.553 288.2 581.686 282.6C576.086 277 573.286 269.533 573.286 260.2V57.8H508.486C488.753 57.8 478.886 49.2667 478.886 32.2C478.886 15.4 488.753 6.99998 508.486 6.99998H700.486C720.219 6.99998 730.086 15.4 730.086 32.2C730.086 49.2667 720.219 57.8 700.486 57.8H635.686V260.2C635.686 269.533 632.886 277 627.286 282.6C621.686 288.2 614.086 291 604.486 291Z" fill="#7CFF38"/>
</svg>
