<svg xmlns="http://www.w3.org/2000/svg" viewBox="0 0 102.95 49.73">
  <defs>
    <style>
      .cls-1 {
        fill: none;
        stroke: #231f20;
        stroke-miterlimit: 10;
      }
    </style>
  </defs>
  <title>Eszköz 2</title>
  <g id="Réteg_2" data-name="Réteg 2">
    <g id="Réteg_2-2" data-name="Réteg 2">
      <path class="cls-1" d="M.53,32.34C1.33,41,2.77,49,11.42,49.23c3.4.09,4.27-1.36,10-5.22,1.88-1.28,15-7.62,26-3.45,2,.77,1.74,1,4.67,2.22a43.68,43.68,0,0,0,14.33,3c4.8.19,12.27.48,20-3.88,11-6.2,14-17.24,14.78-19A23.48,23.48,0,0,0,99.42,3.78C99.15,3.33,98,1.25,93.53.56c-3.89-.6-6.32,3.33-9.67,6C77.24,11.85,69.09,11.94,63.75,12c-9.62.11-9.7-4.09-24.55-7.23-8.78-1.85-15.66-3.2-22.89.12A26.64,26.64,0,0,0,5.2,14.9,29.81,29.81,0,0,0,.53,32.34Z"/>
    </g>
  </g>
</svg>
