<svg width="547" height="785" viewBox="0 0 547 785" fill="none" xmlns="http://www.w3.org/2000/svg">
<g id="is_there_set_icon">
<rect id="blue" x="80" width="467" height="705" rx="50" fill="#387CFF"/>
<rect id="green" x="40" y="40" width="467" height="705" rx="50" fill="#7CFF38"/>
<rect id="red" y="80" width="467" height="705" rx="50" fill="#FF387C"/>
<path id="question_mark" d="M232.333 478.333C227.444 478.333 223.556 476.667 220.667 473.333C218 470 216.667 465.556 216.667 460C216.667 448.667 218.667 439.222 222.667 431.667C226.889 424.111 233 415.778 241 406.667C247 399.778 251.333 394.111 254 389.667C256.889 385 258.333 379.778 258.333 374C258.333 367.778 256 362.889 251.333 359.333C246.889 355.556 240.778 353.667 233 353.667C225.889 353.667 219.222 355.111 213 358C207 360.889 198.889 365.333 188.667 371.333C182.222 374.889 176.889 376.667 172.667 376.667C168 376.667 164 374.667 160.667 370.667C157.556 366.444 156 361.444 156 355.667C156 351.667 156.667 348.333 158 345.667C159.556 342.778 161.889 340.111 165 337.667C174.778 329.889 186 323.889 198.667 319.667C211.556 315.222 224.444 313 237.333 313C251.111 313 263.444 315.444 274.333 320.333C285.444 325.222 294 332 300 340.667C306.222 349.111 309.333 358.667 309.333 369.333C309.333 377.556 307.667 385.111 304.333 392C301.222 398.667 297.444 404.556 293 409.667C288.556 414.556 282.556 420.667 275 428C266.556 435.778 260.222 442.333 256 447.667C251.778 452.778 249.111 458.556 248 465C247.111 469.222 245.222 472.556 242.333 475C239.667 477.222 236.333 478.333 232.333 478.333ZM233 553C224.778 553 218 550.333 212.667 545C207.333 539.444 204.667 532.556 204.667 524.333C204.667 516.111 207.333 509.333 212.667 504C218 498.444 224.778 495.667 233 495.667C241 495.667 247.667 498.444 253 504C258.333 509.333 261 516.111 261 524.333C261 532.556 258.333 539.444 253 545C247.667 550.333 241 553 233 553Z" fill="#171717"/>
</g>
</svg>
