<svg width="547" height="785" viewBox="0 0 547 785" fill="none" xmlns="http://www.w3.org/2000/svg">
<g id="show_set_icon">
<rect id="blue" x="80" width="467" height="705" rx="50" fill="#387CFF"/>
<rect id="green" x="40" y="40" width="467" height="705" rx="50" fill="#7CFF38"/>
<rect id="red" y="80" width="467" height="705" rx="50" fill="#FF387C"/>
<path id="eye_icon" d="M234.348 313C154.19 313 85.7347 362.76 58 433C85.7347 503.24 154.19 553 234.348 553C314.506 553 382.961 503.24 410.696 433C382.961 362.76 314.506 313 234.348 313ZM234.348 513C190.101 513 154.19 477.16 154.19 433C154.19 388.84 190.101 353 234.348 353C278.595 353 314.506 388.84 314.506 433C314.506 477.16 278.595 513 234.348 513ZM234.348 385C207.735 385 186.253 406.44 186.253 433C186.253 459.56 207.735 481 234.348 481C260.96 481 282.443 459.56 282.443 433C282.443 406.44 260.96 385 234.348 385Z" fill="#171717"/>
</g>
</svg>
